<?xml version="1.0" encoding="UTF-8"?> <svg xmlns="http://www.w3.org/2000/svg" width="360" height="360" viewBox="0 0 360 360" fill="none"><circle cx="180" cy="180" r="180" fill="black"></circle><path d="M103.32 140H117.812V192.266C117.812 197.995 116.458 203.034 113.75 207.383C111.068 211.732 107.292 215.13 102.422 217.578C97.5521 220 91.862 221.211 85.3516 221.211C78.8151 221.211 73.112 220 68.2422 217.578C63.3724 215.13 59.5964 211.732 56.9141 207.383C54.2318 203.034 52.8906 197.995 52.8906 192.266V140H67.3828V191.055C67.3828 194.388 68.112 197.357 69.5703 199.961C71.0547 202.565 73.138 204.609 75.8203 206.094C78.5026 207.552 81.6797 208.281 85.3516 208.281C89.0234 208.281 92.2005 207.552 94.8828 206.094C97.5911 204.609 99.6745 202.565 101.133 199.961C102.591 197.357 103.32 194.388 103.32 191.055V140ZM235.674 174.18V185.82H125.674V174.18H235.674ZM253.838 220H238.369L266.533 140H284.424L312.627 220H297.158L275.791 156.406H275.166L253.838 220ZM254.346 188.633H296.533V200.273H254.346V188.633Z" fill="white"></path></svg> 